<svg class="brxe-svg logo-style" id="logo" xmlns="http://www.w3.org/2000/svg" width="125" height="28" viewBox="0 0 125 28" fill="none"><path d="M0.954578 27.6951C0.730103 27.7704 0.491917 27.7301 0.301713 27.5899C0.11151 27.4479 0.00184774 27.2288 0.00184774 26.987V12.8029C0.00184774 12.4787 0.204079 12.1931 0.507369 12.0931C0.653014 12.0442 0.807221 12.0459 0.95629 12.0931L5.82784 13.7126C6.12943 13.8125 6.33164 14.0982 6.33164 14.4207V25.3658C6.33164 25.6901 6.13114 25.974 5.82956 26.0757L0.95629 27.6951H0.954578Z" fill="#2050F6"></path><path d="M0.952702 10.7768C0.728227 10.8522 0.490069 10.8118 0.29988 10.6716C0.109676 10.5297 0 10.3106 0 10.0687V4.82836C0 4.50413 0.202188 4.2202 0.503766 4.1203L12.7914 0.0366734C13.0931 -0.0632279 13.4204 0.0454307 13.6055 0.308334L16.6162 4.54794C16.7548 4.74247 16.7926 4.98609 16.7189 5.21569C16.6452 5.44528 16.4755 5.6188 16.2511 5.69416L0.952702 10.7785V10.7768Z" fill="#2050F6"></path><path d="M13.2406 22.8351C13.0932 22.8841 12.9373 22.8841 12.7899 22.8351L7.91836 21.2156C7.6939 21.1403 7.52426 20.9667 7.45058 20.7371C7.3769 20.5075 7.41457 20.264 7.55336 20.0694L17.0086 6.75994C17.0995 6.632 17.2245 6.53735 17.3701 6.49004C17.6718 6.39013 18.0008 6.49879 18.1876 6.75994L21.1983 10.9978C21.3851 11.2589 21.3851 11.6112 21.1983 11.8741L13.6039 22.5652C13.513 22.6931 13.3862 22.786 13.2388 22.8351H13.2406Z" fill="#2050F6"></path><path d="M30.1424 6.20427H36.5536C37.6842 6.20427 38.6674 6.42652 39.5037 6.87106C40.3554 7.29972 41.0136 7.91095 41.4782 8.70476C41.9427 9.4827 42.1751 10.4194 42.1751 11.5148C42.1751 12.5785 41.9427 13.5153 41.4782 14.3249C41.0136 15.1187 40.3554 15.7379 39.5037 16.1825C38.6674 16.6112 37.6842 16.8255 36.5536 16.8255H32.8137V22.8743H30.1424V6.20427ZM32.8137 8.58569V14.444H36.3214C36.9563 14.444 37.506 14.3249 37.9705 14.0868C38.4507 13.8486 38.8146 13.5073 39.0624 13.0628C39.3255 12.6183 39.4573 12.1022 39.4573 11.5148C39.4573 10.9116 39.3255 10.3956 39.0624 9.96692C38.8146 9.52239 38.4584 9.18105 37.9938 8.94291C37.5292 8.70476 36.9795 8.58569 36.3446 8.58569H32.8137Z" fill="#2050F6"></path><path d="M43.7417 10.6814H45.9717L46.4362 13.7057L45.9253 13.1342C46.1421 12.7056 46.3898 12.3086 46.6686 11.9435C46.9628 11.5625 47.3577 11.2608 47.8532 11.0385C48.3488 10.8004 48.9837 10.6814 49.7581 10.6814H50.3156V13.0865H49.2006C48.4571 13.0865 47.8688 13.2612 47.4351 13.6105C47.0015 13.9598 46.6918 14.4122 46.506 14.9679C46.3356 15.5236 46.2505 16.119 46.2505 16.754V22.8743H43.7417V10.6814Z" fill="#2050F6"></path><path d="M56.2086 20.8263C56.921 20.8263 57.5327 20.6516 58.0438 20.3023C58.5703 19.953 58.9806 19.4768 59.2749 18.8735C59.5691 18.2543 59.7163 17.5557 59.7163 16.7778C59.7163 15.984 59.5691 15.2855 59.2749 14.6821C58.9806 14.0789 58.5703 13.6026 58.0438 13.2533C57.5327 12.904 56.921 12.7293 56.2086 12.7293C55.4963 12.7293 54.8769 12.904 54.3503 13.2533C53.8392 13.6026 53.4367 14.0789 53.1424 14.6821C52.8636 15.2855 52.7242 15.984 52.7242 16.7778C52.7242 17.5557 52.8636 18.2543 53.1424 18.8735C53.4367 19.4768 53.8392 19.953 54.3503 20.3023C54.8769 20.6516 55.4963 20.8263 56.2086 20.8263ZM56.2086 23.0172C55.0162 23.0172 53.9554 22.7552 53.0262 22.2313C52.1125 21.7073 51.4002 20.9771 50.8891 20.0404C50.3936 19.1037 50.1458 18.0162 50.1458 16.7778C50.1458 15.5394 50.3936 14.452 50.8891 13.5153C51.4002 12.5785 52.1125 11.8483 53.0262 11.3243C53.9554 10.8004 55.0162 10.5385 56.2086 10.5385C57.4166 10.5385 58.4773 10.8004 59.3911 11.3243C60.3048 11.8483 61.0093 12.5785 61.5048 13.5153C62.0159 14.452 62.2715 15.5394 62.2715 16.7778C62.2715 18.0162 62.0159 19.1037 61.5048 20.0404C61.0093 20.9771 60.3048 21.7073 59.3911 22.2313C58.4773 22.7552 57.4166 23.0172 56.2086 23.0172Z" fill="#2050F6"></path><path d="M70.4212 10.5385C71.5052 10.5385 72.4653 10.7846 73.3015 11.2768C74.1534 11.7689 74.8193 12.4833 75.2992 13.42C75.7949 14.3568 76.0427 15.476 76.0427 16.7778C76.0427 18.032 75.7949 19.1276 75.2992 20.0642C74.8193 21.0009 74.161 21.7312 73.3247 22.2551C72.4886 22.7631 71.5206 23.0172 70.4212 23.0172C69.3371 23.0172 68.4467 22.7791 67.7498 22.3028C67.0529 21.8264 66.5418 21.2391 66.2167 20.5405L66.5652 19.9451V27.6372H64.0564V10.6814H66.2399L66.7278 13.7057L66.147 13.1104C66.5186 12.4277 67.0451 11.8324 67.7266 11.3243C68.4235 10.8004 69.3216 10.5385 70.4212 10.5385ZM70.0031 12.7293C69.3062 12.7293 68.6945 12.904 68.1679 13.2533C67.6568 13.5868 67.2543 14.055 66.96 14.6584C66.6812 15.2457 66.5418 15.9364 66.5418 16.7301C66.5418 17.5399 66.6812 18.2543 66.96 18.8735C67.2543 19.4927 67.6568 19.9769 68.1679 20.3262C68.6945 20.6755 69.3062 20.8501 70.0031 20.8501C70.6999 20.8501 71.3116 20.6755 71.8382 20.3262C72.3647 19.9769 72.7672 19.5006 73.046 18.8973C73.3403 18.2781 73.4875 17.5716 73.4875 16.7778C73.4875 15.9682 73.3403 15.2616 73.046 14.6584C72.7672 14.055 72.3647 13.5868 71.8382 13.2533C71.3116 12.904 70.6999 12.7293 70.0031 12.7293Z" fill="#2050F6"></path><path d="M78.0762 6.20426H80.7475V13.2056H88.2971V6.20426H90.9685V22.8743H88.2971V15.6348H80.7475V22.8743H78.0762V6.20426Z" fill="#2050F6"></path><path d="M99.0897 23.0172C97.8508 23.0172 96.7746 22.7631 95.8608 22.2551C94.9471 21.7312 94.2426 21.0009 93.7469 20.0642C93.2514 19.1276 93.0036 18.04 93.0036 16.8016C93.0036 15.5475 93.2438 14.452 93.7237 13.5153C94.2193 12.5785 94.9085 11.8483 95.7912 11.3243C96.6738 10.8004 97.6959 10.5385 98.8575 10.5385C100.003 10.5385 101.002 10.7766 101.854 11.2528C102.721 11.7133 103.395 12.3801 103.875 13.2533C104.37 14.1265 104.634 15.1584 104.665 16.3492C104.665 16.5079 104.657 16.6747 104.641 16.8492C104.626 17.008 104.611 17.1668 104.595 17.3256H95.6286C95.6286 17.3414 95.6286 17.3652 95.6286 17.397C95.6286 17.4287 95.6286 17.4605 95.6286 17.4922C95.6596 18.1749 95.8066 18.7783 96.0699 19.3021C96.3487 19.8101 96.7358 20.2071 97.2314 20.4928C97.7269 20.7786 98.3 20.9215 98.9503 20.9215C99.7091 20.9215 100.352 20.7309 100.878 20.35C101.42 19.969 101.777 19.445 101.947 18.7783H104.456C104.316 19.572 104.006 20.2944 103.527 20.9453C103.062 21.5804 102.45 22.0884 101.691 22.4694C100.948 22.8345 100.081 23.0172 99.0897 23.0172ZM95.7214 15.4442H102.063C101.955 14.5392 101.614 13.8407 101.041 13.3485C100.483 12.8564 99.7633 12.6104 98.8807 12.6104C98.3541 12.6104 97.8586 12.7293 97.3939 12.9676C96.9448 13.1898 96.5655 13.5153 96.2557 13.944C95.9615 14.3568 95.7834 14.8568 95.7214 15.4442Z" fill="#2050F6"></path><path d="M106.46 10.6814H108.69L109.155 13.7057L108.644 13.1342C108.861 12.7056 109.108 12.3086 109.387 11.9435C109.681 11.5625 110.076 11.2608 110.572 11.0385C111.067 10.8004 111.702 10.6814 112.477 10.6814H113.034V13.0865H111.919C111.176 13.0865 110.587 13.2612 110.154 13.6105C109.72 13.9598 109.41 14.4122 109.225 14.9679C109.054 15.5236 108.969 16.119 108.969 16.754V22.8743H106.46V10.6814Z" fill="#2050F6"></path><path d="M118.927 20.8263C119.64 20.8263 120.251 20.6516 120.762 20.3023C121.289 19.953 121.699 19.4768 121.993 18.8735C122.288 18.2543 122.435 17.5557 122.435 16.7778C122.435 15.984 122.288 15.2855 121.993 14.6821C121.699 14.0789 121.289 13.6026 120.762 13.2533C120.251 12.904 119.64 12.7293 118.927 12.7293C118.215 12.7293 117.595 12.904 117.069 13.2533C116.558 13.6026 116.155 14.0789 115.861 14.6821C115.582 15.2855 115.443 15.984 115.443 16.7778C115.443 17.5557 115.582 18.2543 115.861 18.8735C116.155 19.4768 116.558 19.953 117.069 20.3023C117.595 20.6516 118.215 20.8263 118.927 20.8263ZM118.927 23.0172C117.735 23.0172 116.674 22.7552 115.745 22.2313C114.831 21.7073 114.119 20.9771 113.608 20.0404C113.112 19.1037 112.865 18.0162 112.865 16.7778C112.865 15.5394 113.112 14.452 113.608 13.5153C114.119 12.5785 114.831 11.8483 115.745 11.3243C116.674 10.8004 117.735 10.5385 118.927 10.5385C120.135 10.5385 121.196 10.8004 122.11 11.3243C123.023 11.8483 123.728 12.5785 124.224 13.5153C124.735 14.452 124.99 15.5394 124.99 16.7778C124.99 18.0162 124.735 19.1037 124.224 20.0404C123.728 20.9771 123.023 21.7073 122.11 22.2313C121.196 22.7552 120.135 23.0172 118.927 23.0172Z" fill="#2050F6"></path></svg>